<?xml version="1.0" encoding="UTF-8"?>
<svg id="Layer_2" data-name="Layer 2" xmlns="http://www.w3.org/2000/svg" viewBox="0 0 92.48 90.95">
  <defs>
    <style>
      .cls-1 {
        fill: #c0567d;
      }

      .cls-1, .cls-2, .cls-3, .cls-4 {
        stroke-width: 0px;
      }

      .cls-2 {
        fill: #e2c59f;
      }

      .cls-3 {
        fill: #fb9a65;
      }

      .cls-4 {
        fill: #f3df97;
      }
    </style>
  </defs>
  <path class="cls-1" d="M53.5,90.4c.06.45.55.69.95.48l10.18-5.52c5.39-3.42,7.35-7.78,7.35-12.51,0-6.23-4.43-15.88-4.43-15.88-.06-.18-.29-.23-.43-.11-6,5.19-8.78,8.2-11.25,11.1-2.94,3.45-4.25,7.75-3.77,12.04l1.41,10.4Z"/>
  <path class="cls-2" d="M50.1,65.57c1.62-5.49,6.77-13.5,20.75-23.81.21-.14,15.55-10.75,20.34-22.38,1.16-2.81,1.5-5.87,1.17-8.89-.19-1.78-.46-3.28-.46-3.28-2.19,9.09-10.29,16.86-13.4,19.57h0s-7.51,6.27-17.51,14.24c-10.94,8.72-11.52,17.95-11.29,21.42l.17,1.4s0,.03,0,.03h0l.21,1.69Z"/>
  <path class="cls-3" d="M71.59,42.8c-21.34,15.75-21.42,25.82-20.5,29.36,1.28-3.46,6.23-8.81,9.18-11.25l16.32-13.45c8.76-7.22,14.22-16.86,15.63-27.13-5.06,11.73-19.83,21.93-20.63,22.47"/>
  <path class="cls-4" d="M48.96,56.27c1.09-4.55,4-10.48,11.24-16.25,6.48-5.17,13.92-11.27,16.53-13.42.07-.05.13-.11.19-.15,2.57-2.17,16.2-14.31,14.01-26.45,0,0-2.57,7.21-13.09,15.99l-19.96,16.28c-6.83,5.63-10.23,13.76-9.18,21.94l.25,2.07Z"/>
  <path class="cls-1" d="M38.98,90.4c-.06.45-.55.69-.95.48l-10.18-5.52c-5.39-3.42-7.35-7.78-7.35-12.51,0-6.23,4.43-15.88,4.43-15.88.06-.18.29-.23.43-.11,6,5.19,8.78,8.2,11.25,11.1,2.94,3.45,4.25,7.75,3.77,12.04l-1.41,10.4Z"/>
  <path class="cls-2" d="M42.38,65.57c-1.62-5.49-6.77-13.5-20.75-23.81-.21-.14-15.55-10.75-20.34-22.38C.13,16.57-.21,13.51.12,10.49c.19-1.78.46-3.28.46-3.28,2.19,9.09,10.29,16.86,13.4,19.57h0s7.51,6.27,17.51,14.24c10.94,8.72,11.52,17.95,11.29,21.42l-.17,1.4s0,.03,0,.03h0l-.21,1.69Z"/>
  <path class="cls-3" d="M20.89,42.8c21.34,15.75,21.42,25.82,20.5,29.36-1.28-3.46-6.23-8.81-9.18-11.25l-16.32-13.45C7.13,40.23,1.67,30.6.26,20.33c5.06,11.73,19.83,21.93,20.63,22.47"/>
  <path class="cls-4" d="M43.52,56.27c-1.09-4.55-4-10.48-11.24-16.25-6.48-5.17-13.92-11.27-16.53-13.42-.07-.05-.13-.11-.19-.15C12.99,24.28-.63,12.14,1.55,0c0,0,2.57,7.21,13.09,15.99l19.96,16.28c6.83,5.63,10.23,13.76,9.18,21.94l-.25,2.07Z"/>
</svg>