<?xml version="1.0" encoding="UTF-8"?>
<svg id="Layer_2" data-name="Layer 2" xmlns="http://www.w3.org/2000/svg" viewBox="0 0 428.22 93.36">
  <defs>
    <style>
      .cls-1 {
        fill: #c0567d;
      }

      .cls-1, .cls-2, .cls-3, .cls-4 {
        stroke-width: 0px;
      }

      .cls-2 {
        fill: #e2c59f;
      }

      .cls-3 {
        fill: #fb9a65;
      }

      .cls-4 {
        fill: #f3df97;
      }
    </style>
  </defs>
  <g>
    <polygon class="cls-1" points="420.27 41.83 420.27 43.03 418.39 43.03 418.39 48.35 416.99 48.35 416.99 43.03 415.11 43.03 415.11 41.83 420.27 41.83"/>
    <polygon class="cls-1" points="422.87 41.83 424.67 46.62 426.42 41.83 428.22 41.83 428.22 48.35 426.89 48.35 426.89 43.98 425.19 48.35 424.06 48.35 422.36 43.98 422.36 48.35 421.03 48.35 421.03 41.83 422.87 41.83"/>
    <path class="cls-1" d="M405.47,78.63h-28.2c-2.26,0-4.09-1.83-4.09-4.09s1.83-4.09,4.09-4.09h28.2c1.81,0,3.28-1.47,3.28-3.28s-1.47-3.28-3.28-3.28h-22.37c-6.31,0-11.45-5.14-11.45-11.45s5.14-11.45,11.45-11.45h25.83c2.26,0,4.09,1.83,4.09,4.09s-1.83,4.09-4.09,4.09h-25.83c-1.81,0-3.28,1.47-3.28,3.28s1.47,3.28,3.28,3.28h22.37c6.31,0,11.45,5.14,11.45,11.45s-5.14,11.45-11.45,11.45"/>
    <path class="cls-1" d="M283.06,78.63h-28.2c-2.26,0-4.09-1.83-4.09-4.09s1.83-4.09,4.09-4.09h28.2c1.81,0,3.28-1.47,3.28-3.28s-1.47-3.28-3.28-3.28h-22.37c-6.31,0-11.45-5.14-11.45-11.45s5.14-11.45,11.45-11.45h25.83c2.26,0,4.09,1.83,4.09,4.09s-1.83,4.09-4.09,4.09h-25.83c-1.81,0-3.28,1.47-3.28,3.28s1.47,3.28,3.28,3.28h22.37c6.31,0,11.45,5.14,11.45,11.45s-5.14,11.45-11.45,11.45"/>
    <path class="cls-1" d="M171.2,78.63c-2.26,0-4.09-1.83-4.09-4.09v-17.35c0-8.93,7.26-16.19,16.19-16.19h14.94c2.26,0,4.09,1.83,4.09,4.09s-1.83,4.09-4.09,4.09h-14.94c-4.42,0-8.01,3.59-8.01,8.02v17.35c0,2.26-1.83,4.09-4.09,4.09"/>
    <path class="cls-1" d="M240.94,41.03c-2.13.2-3.69,2.11-3.69,4.24v21.92c0,1.81-1.46,3.27-3.27,3.27-5.59,0-16.4,0-16.4,0-1.81,0-3.28-1.47-3.28-3.28v-21.77c0-2.14-1.56-4.04-3.69-4.24-2.44-.23-4.49,1.68-4.49,4.07v21.94c0,6.32,5.14,11.45,11.45,11.45,0,0,10.81,0,16.4,0,1.81,0,3.27,1.46,3.27,3.27h0c0,1.82-1.47,3.28-3.28,3.28h-21.16c-2.14,0-4.04,1.56-4.24,3.69-.23,2.44,1.68,4.49,4.07,4.49h21.34c6.33,0,11.45-5.13,11.45-11.45v-36.81c0-2.39-2.05-4.3-4.49-4.07"/>
    <path class="cls-1" d="M363.75,78.63c-2.26,0-4.09-1.83-4.09-4.09v-29.45c0-2.26,1.83-4.09,4.09-4.09s4.09,1.83,4.09,4.09v29.45c0,2.26-1.83,4.09-4.09,4.09"/>
    <path class="cls-1" d="M363.75,34.45c-1.07,0-2.13-.43-2.89-1.19-.76-.76-1.2-1.82-1.2-2.9s.44-2.13,1.2-2.89c.19-.19.39-.36.62-.51.22-.15.46-.28.7-.38.25-.1.51-.18.77-.24,1.32-.27,2.74.17,3.69,1.12.76.76,1.2,1.82,1.2,2.89s-.43,2.14-1.2,2.9c-.76.76-1.82,1.19-2.89,1.19"/>
    <path class="cls-1" d="M350.94,78.63c-2.26,0-4.09-1.83-4.09-4.09V30.41c0-2.26,1.83-4.09,4.09-4.09s4.09,1.83,4.09,4.09v44.14c0,2.26-1.83,4.09-4.09,4.09"/>
    <path class="cls-1" d="M332.36,78.63h-23.49c-5.82,0-10.55-4.73-10.55-10.55,0-5.46,4.26-10.07,9.7-10.52,0,0,22.66-1.84,22.78-1.84,1.81,0,3.28-1.47,3.28-3.28s-1.47-3.27-3.28-3.27h-23.66c-2.26,0-4.09-1.83-4.09-4.09s1.83-4.09,4.09-4.09h23.66c6.31,0,11.45,5.14,11.45,11.45v16.3c0,5.45-4.43,9.88-9.88,9.88M308.67,65.72c-1.41.11-2.47,1.48-2.11,2.94.26,1.08,1.3,1.8,2.42,1.8h23.38c.94,0,1.71-.76,1.71-1.71v-2.73c0-1.28-1.09-2.28-2.36-2.18l-23.03,1.87Z"/>
    <path class="cls-1" d="M149.59,50.54l12.86-17.58c1.26-1.72,1.13-4.18-.47-5.6-1.83-1.63-4.62-1.3-6.03.63l-13.94,19.06c-.62.84-1.6,1.34-2.64,1.34h-10.97c-1.81,0-3.27-1.47-3.27-3.27v-14.53c0-2.14-1.56-4.04-3.69-4.24-2.44-.23-4.49,1.68-4.49,4.07v43.96c0,2.14,1.56,4.04,3.69,4.24,2.44.23,4.49-1.68,4.49-4.07v-14.71c0-1.81,1.46-3.27,3.27-3.27h10.97c1.04,0,2.03.5,2.64,1.34l13.94,19.06c.8,1.09,2.04,1.67,3.3,1.67.9,0,1.8-.29,2.56-.91,1.72-1.39,1.93-3.95.62-5.74l-12.86-17.58c-.84-1.15-.84-2.71,0-3.86"/>
  </g>
  <g>
    <path class="cls-1" d="M53.5,90.4c.06.45.55.69.95.48l10.18-5.52c5.39-3.42,7.35-7.78,7.35-12.51,0-6.23-4.43-15.88-4.43-15.88-.06-.18-.29-.23-.43-.11-6,5.19-8.78,8.2-11.25,11.1-2.94,3.45-4.25,7.75-3.77,12.04l1.41,10.4Z"/>
    <path class="cls-2" d="M50.1,65.57c1.62-5.49,6.77-13.5,20.75-23.81.21-.14,15.55-10.75,20.34-22.38,1.16-2.81,1.5-5.87,1.17-8.89-.19-1.78-.46-3.28-.46-3.28-2.19,9.09-10.29,16.86-13.4,19.57h0s-7.51,6.27-17.51,14.24c-10.94,8.72-11.52,17.95-11.29,21.42l.17,1.4s0,.03,0,.03h0l.21,1.69Z"/>
    <path class="cls-3" d="M71.59,42.8c-21.34,15.75-21.42,25.82-20.5,29.36,1.28-3.46,6.23-8.81,9.18-11.25l16.32-13.45c8.76-7.22,14.22-16.86,15.63-27.13-5.06,11.73-19.83,21.93-20.63,22.47"/>
    <path class="cls-4" d="M48.96,56.27c1.09-4.55,4-10.48,11.24-16.25,6.48-5.17,13.92-11.27,16.53-13.42.07-.05.13-.11.19-.15,2.57-2.17,16.2-14.31,14.01-26.45,0,0-2.57,7.21-13.09,15.99l-19.96,16.28c-6.83,5.63-10.23,13.76-9.18,21.94l.25,2.07Z"/>
    <path class="cls-1" d="M38.98,90.4c-.06.45-.55.69-.95.48l-10.18-5.52c-5.39-3.42-7.35-7.78-7.35-12.51,0-6.23,4.43-15.88,4.43-15.88.06-.18.29-.23.43-.11,6,5.19,8.78,8.2,11.25,11.1,2.94,3.45,4.25,7.75,3.77,12.04l-1.41,10.4Z"/>
    <path class="cls-2" d="M42.38,65.57c-1.62-5.49-6.77-13.5-20.75-23.81-.21-.14-15.55-10.75-20.34-22.38C.13,16.57-.21,13.51.12,10.49c.19-1.78.46-3.28.46-3.28,2.19,9.09,10.29,16.86,13.4,19.57h0s7.51,6.27,17.51,14.24c10.94,8.72,11.52,17.95,11.29,21.42l-.17,1.4s0,.03,0,.03h0l-.21,1.69Z"/>
    <path class="cls-3" d="M20.89,42.8c21.34,15.75,21.42,25.82,20.5,29.36-1.28-3.46-6.23-8.81-9.18-11.25l-16.32-13.45C7.13,40.23,1.67,30.6.26,20.33c5.06,11.73,19.83,21.93,20.63,22.47"/>
    <path class="cls-4" d="M43.52,56.27c-1.09-4.55-4-10.48-11.24-16.25-6.48-5.17-13.92-11.27-16.53-13.42-.07-.05-.13-.11-.19-.15C12.99,24.28-.63,12.14,1.55,0c0,0,2.57,7.21,13.09,15.99l19.96,16.28c6.83,5.63,10.23,13.76,9.18,21.94l-.25,2.07Z"/>
  </g>
</svg>